# xmcd
#
# Track frame offsets:
#	150
#	18371
#	35724
#	49308
#	65155
#	80398
#	97954
#	110498
#	127099
#	144414
#	159645
#	172645
#
# Disc length: 2321 seconds
#
# Revision: 0
# Processed by: cddbd v1.5.1PL2 Copyright (c) Steve Scherf et al.
# Submitted via: EasyCDDAExtractor 4.6.0.1
#
DISCID=9f090f0c
DTITLE=Bailao das Perseguidas
DYEAR=1900
DGENRE=
TTITLE0=Bugiu dos Fandangos
TTITLE1=Meu Chouriço
TTITLE2=Balilao da Perseguida
TTITLE3=Vendedor de Mandioca
TTITLE4=Pirata Cachorrao
TTITLE5=Baita Pinto
TTITLE6=Voce ta Cabeluda
TTITLE7=So uma vez por semana
TTITLE8=vida da minha vida
TTITLE9=ela mata o gordinho
TTITLE10=abre as pernas
TTITLE11=valentina
EXTD=
EXTT0=
EXTT1=
EXTT2=
EXTT3=
EXTT4=
EXTT5=
EXTT6=
EXTT7=
EXTT8=
EXTT9=
EXTT10=
EXTT11=
PLAYORDER=
